<svg width="16px" height="16px" viewBox="0 0 16 16" version="1.1" xmlns="http://www.w3.org/2000/svg" xmlns:xlink="http://www.w3.org/1999/xlink">
    <title>
        7FD0142A-20E7-4121-91AA-6C13CAB429A5
    </title>
    <g id="Page-1" stroke="none" stroke-width="1" fill="none" fill-rule="evenodd">
        <g id="Homepage_II" transform="translate(-1007.000000, -10970.000000)"
            fill="#000000">
            <path
                d="M1018.05939,10979.0672 C1018.23449,10979.2453 1018.23147,10979.5321 1018.05184,10979.7072 C1017.96429,10979.7932 1017.85032,10979.8362 1017.7356,10979.8362 C1017.61786,10979.8362 1017.50087,10979.7909 1017.41257,10979.6996 L1015.02755,10977.2604 L1012.58366,10979.7042 C1012.40705,10979.8792 1012.12024,10979.88 1011.94287,10979.7034 C1011.76702,10979.526 1011.76702,10979.24 1011.94363,10979.0626 L1014.71131,10976.2958 C1014.79659,10976.2113 1014.91132,10976.1638 1015.03132,10976.1638 L1015.03434,10976.1638 C1015.1551,10976.1645 1015.27133,10976.2136 1015.35511,10976.3004 L1018.05939,10979.0672 Z M1014.99962,10985.0943 C1011.08774,10985.0943 1007.90495,10981.9125 1007.90495,10978 C1007.90495,10974.0875 1011.08774,10970.9057 1014.99962,10970.9057 C1018.91226,10970.9057 1022.09505,10974.0875 1022.09505,10978 C1022.09505,10981.9125 1018.91226,10985.0943 1014.99962,10985.0943 L1014.99962,10985.0943 Z M1014.99962,10970 C1010.58885,10970 1007,10973.5887 1007,10978 C1007,10982.4113 1010.58885,10986 1014.99962,10986 C1019.41115,10986 1023,10982.4113 1023,10978 C1023,10973.5887 1019.41115,10970 1014.99962,10970 L1014.99962,10970 Z"
                id="Scroll-up-Copy-5"
                transform="translate(1015.000000, 10978.000000) rotate(-270.000000) translate(-1015.000000, -10978.000000) ">
            </path>
        </g>
    </g>
</svg>