<?xml version="1.0" encoding="UTF-8"?>
<svg width="544px" height="554px" viewBox="0 0 544 554" version="1.1" xmlns="http://www.w3.org/2000/svg" xmlns:xlink="http://www.w3.org/1999/xlink">
    <title>86944868-BAD8-4324-93C6-31A39EF2F2AD</title>
    <defs>
        <linearGradient x1="50%" y1="0%" x2="50%" y2="100%" id="linearGradient-1">
            <stop stop-color="#F9C371" offset="0%"></stop>
            <stop stop-color="#020305" offset="100%"></stop>
        </linearGradient>
        <linearGradient x1="50%" y1="0%" x2="50%" y2="100%" id="linearGradient-2">
            <stop stop-color="#F9C371" offset="0%"></stop>
            <stop stop-color="#020305" offset="100%"></stop>
        </linearGradient>
        <linearGradient x1="50%" y1="0%" x2="50%" y2="100%" id="linearGradient-3">
            <stop stop-color="#F9C371" offset="0%"></stop>
            <stop stop-color="#020305" offset="100%"></stop>
        </linearGradient>
        <linearGradient x1="50%" y1="0%" x2="50%" y2="100%" id="linearGradient-4">
            <stop stop-color="#F9C371" offset="0%"></stop>
            <stop stop-color="#020305" offset="100%"></stop>
        </linearGradient>
        <linearGradient x1="50%" y1="0%" x2="50%" y2="100%" id="linearGradient-5">
            <stop stop-color="#F9C371" offset="0%"></stop>
            <stop stop-color="#020305" offset="100%"></stop>
        </linearGradient>
        <linearGradient x1="50%" y1="0%" x2="50%" y2="100%" id="linearGradient-6">
            <stop stop-color="#F9C371" offset="0%"></stop>
            <stop stop-color="#020305" offset="100%"></stop>
        </linearGradient>
        <linearGradient x1="50%" y1="0%" x2="50%" y2="100%" id="linearGradient-7">
            <stop stop-color="#F9C371" offset="0%"></stop>
            <stop stop-color="#020305" offset="100%"></stop>
        </linearGradient>
        <linearGradient x1="50%" y1="0%" x2="50%" y2="100%" id="linearGradient-8">
            <stop stop-color="#F9C371" offset="0%"></stop>
            <stop stop-color="#020305" offset="100%"></stop>
        </linearGradient>
        <linearGradient x1="50%" y1="0%" x2="50%" y2="100%" id="linearGradient-9">
            <stop stop-color="#F9C371" offset="0%"></stop>
            <stop stop-color="#020305" offset="100%"></stop>
        </linearGradient>
        <linearGradient x1="50%" y1="0%" x2="50%" y2="100%" id="linearGradient-10">
            <stop stop-color="#F9C371" offset="0%"></stop>
            <stop stop-color="#020305" offset="100%"></stop>
        </linearGradient>
        <linearGradient x1="50%" y1="0%" x2="50%" y2="100%" id="linearGradient-11">
            <stop stop-color="#F9C371" offset="0%"></stop>
            <stop stop-color="#020305" offset="100%"></stop>
        </linearGradient>
        <linearGradient x1="50%" y1="0%" x2="50%" y2="100%" id="linearGradient-12">
            <stop stop-color="#F9C371" offset="0%"></stop>
            <stop stop-color="#020305" offset="100%"></stop>
        </linearGradient>
    </defs>
    <g id="WEB/MOBILE" stroke="none" stroke-width="1" fill="none" fill-rule="evenodd" stroke-linecap="round" stroke-linejoin="round">
        <g id="Homepage_II" transform="translate(-1065.000000, -165.000000)">
            <g id="Geometric-Dots" transform="translate(1066.000000, 167.000000)">
                <path d="M30.8288,83.4488 C20.7968,97.1048 14.9378,112.5098 16.8158,129.6488 C20.4908,163.2038 53.6528,188.0828 56.6348,221.7068 C60.8588,269.4338 3.8318,303.4148 0.6338,351.2228 C-1.6252,384.9728 25.1198,415.2278 56.3828,428.1428 C91.5938,442.6958 134.4908,430.0298 166.2848,449.1458 C203.4848,471.5108 202.1048,533.7608 243.9668,547.6988 C267.9098,555.6668 294.1928,538.2968 305.6978,515.8358 C317.2028,493.3748 317.9498,467.1938 319.9628,442.0358 C322.5728,409.3898 324.2588,382.0118 356.6798,364.4288 C378.9458,352.3598 404.8088,349.1378 428.7578,340.8938 C471.3518,326.2298 507.9128,294.7748 528.7748,254.8478 C545.3168,223.1888 548.8058,177.7748 519.4658,157.4048 C501.9098,145.2188 478.2878,146.4248 457.6148,151.8458 C418.2248,162.1688 374.9078,181.0688 335.2628,158.3528 C301.4108,138.9578 300.0458,94.1378 281.9918,62.4758 C266.4068,35.1518 242.0498,11.3408 211.5998,3.4688 C168.4388,-7.6852 124.2848,14.5478 86.0378,37.4438 C65.8928,49.5068 44.4938,64.8548 30.8288,83.4488 Z" id="Stroke-1" stroke="url(#linearGradient-1)" stroke-width="3" stroke-dasharray="0,6"></path>
                <path d="M41.0447,88.274 C31.6037,101.231 26.0387,115.82 27.5897,132.008 C29.7437,154.667 45.7277,173.354 55.7927,193.784 C59.8307,201.962 62.9147,210.425 63.7697,219.533 C68.0147,264.674 15.3917,297.224 15.5264407,341.999 C15.5777,358.985 22.5167,373.691 31.9007,388.262 C41.0237,402.431 53.3237,414.038 68.7407,421.481 C99.7577,436.463 138.7517,427.418 169.1747,441.122 C170.8697,441.89 172.5437,442.724 174.1907,443.636 C210.5537,463.823 211.6907,518.735 252.2327,532.187 C275.2967,539.84 300.1997,525.053 311.7587,505.439 C323.3207,485.822 325.4477,462.662 328.4807,439.313 C332.0777,411.827 333.8777,387.044 355.6247,369.488 C357.8717,367.676 360.3227,365.921 363.0137,364.253 C382.8047,351.959 405.6107,347.822 427.1507,338.915 C465.5057,323.057 499.9097,291.809 520.9067,253.748 C529.5617,238.07 536.0867,219.758 536.4587,201.713 C536.8187,181.967 529.1087,162.98 512.5547,152.75 C495.0677,141.947 472.7477,143.303 452.9447,149.012 C420.5447,158.357 385.6757,173.921 351.9017,164.585 C346.3187,163.043 340.7957,160.826 335.3537,157.805 C302.6177,139.628 299.7227,97.046 281.6087,67.004 C266.1557,41.387 242.6837,19.226 213.5747,11.921 C172.2587,1.562 129.9887,22.238 93.5447,44.114 C74.2847,55.676 54.0287,70.412 41.0447,88.274 Z" id="Stroke-3" stroke="url(#linearGradient-2)" stroke-width="3.003" stroke-dasharray="0,6.002999782562256"></path>
                <path d="M51.2576,93.0992 C42.4046,105.3602 37.1396,119.1332 38.3606,134.3672 C40.0496,155.7332 54.3686,173.5832 63.5366,192.9992 C67.2086,200.7602 70.0526,208.7702 70.9106,217.3622 C75.1706,259.9142 27.3416,291.2012 30.4196,332.7782 C31.6946,350.0132 39.4496,363.2912 47.9216,379.1012 C55.8776,393.9572 65.9036,406.3442 81.0986,414.8192 C109.7966,430.8272 147.5336,423.5372 177.1946,435.8762 C178.8536,436.5632 180.4856,437.3102 182.0936,438.1262 C217.6226,456.1322 221.2796,503.7062 260.5016,516.6752 C282.6836,524.0162 306.2066,511.8092 317.8226,495.0362 C329.4386,478.2692 332.9456,458.1302 336.9956,436.5842 C341.8226,411.2132 343.8266,386.9072 362.8766,369.3692 C364.8536,367.5482 366.9896,365.7722 369.3476,364.0772 C386.6636,351.5582 406.4216,346.4972 425.5466,336.9332 C459.6746,319.8752 492.0176,288.8882 513.0416,252.6542 C522.5276,236.3012 530.6486,217.7792 531.5246,198.7412 C532.3886,178.1762 523.3886,157.8212 505.6436,148.0952 C488.3126,138.5972 467.2076,140.1782 448.2746,146.1782 C417.2906,156.0092 384.2546,171.9542 351.5006,163.5302 C346.0706,162.1382 340.7156,160.0802 335.4446,157.2602 C303.8276,140.2952 299.4086,99.9542 281.2196,71.5382 C265.9136,47.6192 243.3146,27.1142 215.5496,20.3732 C176.0786,10.8062 135.6926,29.9282 101.0486,50.7842 C82.6796,61.8422 63.5696,75.9722 51.2576,93.0992 Z" id="Stroke-5" stroke="url(#linearGradient-3)" stroke-width="3.003" stroke-dasharray="0,6.009000062942505"></path>
                <path d="M61.4705,97.9244 C53.2085,109.4894 48.2405,122.4434 49.1345,136.7264 C50.3525,156.8024 63.0095,173.8124 71.2775,192.2144 C74.5865,199.5524 77.1845,207.1124 78.0485,215.1884 C82.3265,255.1574 39.7115,285.2954 45.3125,323.5544 C47.8865,341.1314 56.4125,352.8584 63.9395,369.9434 C70.7705,385.4444 78.4745,398.5904 93.4565,408.1574 C119.8685,425.0234 156.3125,419.6624 185.2175,430.6274 C186.8345,431.2394 188.4275,431.8994 189.9995,432.6134 C224.6915,448.4414 230.8655,488.6804 268.7705,501.1664 C290.0675,508.1894 312.2135,498.5684 323.8835,484.6394 C335.5535,470.7164 340.4405,453.5984 345.5135,433.8614 C351.5675,410.6024 353.7845,386.7524 370.1285,369.2474 C371.8355,367.4204 373.6625,365.6234 375.6815,363.9014 C390.5585,351.2024 407.2355,345.1634 423.9395,334.9574 C453.8525,316.6814 484.2215,286.0094 505.1735,251.5574 C515.5205,234.5414 525.2585,215.7974 526.5875,195.7694 C528.0095,174.3884 517.7255,152.6234 498.7325,143.4404 C481.6295,135.1664 461.6645,137.0564 443.6045,143.3504 C414.0335,153.6584 382.8335,169.9874 351.1025,162.4724 C345.8285,161.2334 340.6385,159.3374 335.5355,156.7124 C305.0375,140.9684 299.1065,102.8624 280.8365,76.0664 C265.6835,53.8484 243.9455,34.9964 217.5245,28.8224 C179.8985,20.0534 141.3965,37.6184 108.5525,57.4514 C91.0685,68.0114 73.1045,81.5294 61.4705,97.9244 Z" id="Stroke-7" stroke="url(#linearGradient-4)" stroke-width="3.006" stroke-dasharray="0,6.011999845504761"></path>
                <path d="M71.6834,102.7523 C64.0364,113.6333 59.3384,125.7533 59.9054,139.0793 C60.6554,157.8683 71.6504,174.0413 79.0154,191.4293 C81.9644,198.3443 84.3194,205.4573 85.1894,213.0173 C89.4824,250.3973 52.5044,279.4463 60.2054,314.3273 C64.1774,332.3153 73.4114,342.3923 79.9604,360.7823 C85.6994,376.9043 91.0574,390.7673 105.8174,401.4953 C129.9914,419.0663 165.0914,415.7843 193.2434,425.3783 C194.8154,425.9153 196.3694,426.4883 197.9024,427.1033 C231.7574,440.7503 240.4544,473.6513 277.0364,485.6543 C297.4544,492.3623 318.2204,485.3243 329.9474,474.2423 C341.6714,463.1633 347.8994,449.0543 354.0284,431.1353 C361.2704,409.9703 363.7334,386.5763 377.3774,369.1283 C378.8174,367.2923 380.3354,365.4743 382.0154,363.7253 C394.4354,350.8073 408.0554,343.8173 422.3354,332.9753 C448.0394,313.4603 476.5034,283.1753 497.3054,250.4573 C508.5374,232.7933 519.8264,213.8153 521.6534,192.7973 C523.5854,170.5973 512.1134,147.3743 491.8184,138.7823 C475.0004,131.6633 456.1244,133.9343 438.9344,140.5163 C410.7794,151.3103 381.4124,168.0203 350.7044,161.4143 C345.5864,160.3253 340.5584,158.5913 335.6234,156.1643 C306.2474,141.6353 298.8224,105.7613 280.4504,80.5973 C265.4684,60.0713 244.5764,42.8843 219.4964,37.2743 C183.7184,29.3003 147.1004,45.3113 116.0564,64.1183 C99.4604,74.1833 82.6754,87.1103 71.6834,102.7523 Z" id="Stroke-9" stroke="url(#linearGradient-5)" stroke-width="3.009" stroke-dasharray="0,6.015000343322754"></path>
                <path d="M81.899,107.5775 C74.843,117.7655 70.439,129.0635 70.679,141.4385 C70.961,158.9375 80.294,174.2675 86.756,190.6415 C89.339,197.1395 91.457,203.8025 92.33,210.8435 C96.635,245.6405 65.702,273.5975 75.098,305.1065 C80.594,323.5265 90.455,331.9055 95.978,351.6215 C100.667,368.3465 103.667,382.8785 118.175,394.8335 C140.183,412.9685 173.87,411.9065 201.266,420.1325 C202.796,420.5915 204.311,421.0775 205.808,421.5935 C238.829,433.0565 250.04,458.6255 285.302,470.1425 C304.838,476.5325 324.227,472.0805 336.008,463.8455 C347.789,455.6105 355.394,444.5165 362.549,428.4065 C371.012,409.3505 373.679,386.3765 384.632,369.0095 C385.799,367.1585 387.005,365.3255 388.349,363.5495 C398.309,350.4065 408.875,342.4535 420.728,330.9965 C442.229,310.2155 468.854,280.3775 489.44,249.3635 C501.584,231.0605 514.388,211.8365 516.716,189.8255 C519.155,166.8065 506.543,142.0535 484.907,134.1275 C468.416,128.0825 450.587,130.8095 434.264,137.6825 C407.525,148.9595 379.994,166.0505 350.306,160.3595 C345.341,159.4175 340.478,157.8485 335.714,155.6195 C307.457,142.3055 298.553,108.6575 280.067,85.1285 C265.268,66.2885 245.207,50.7665 221.474,45.7265 C187.538,38.5445 152.804,53.0015 123.563,70.7855 C107.852,80.3495 92.216,92.6735 81.899,107.5775 Z" id="Stroke-11" stroke="url(#linearGradient-6)" stroke-width="3.009" stroke-dasharray="0,6.020999908447266"></path>
                <path d="M92.1119,112.4027 C85.6499,121.8947 81.5399,132.3737 81.4466849,143.7977 C81.2669,160.0037 88.9349,174.4967 94.4969,189.8537 C96.7169,195.9317 98.5889,202.1477 99.4679,208.6727 C103.7939,240.8807 79.2479,267.6887 89.9909,295.8827 C97.1729,314.7227 107.5379,321.4127 111.9989,342.4637 C115.6709,359.7827 116.3219,374.9177 130.5359,388.1717 C150.4559,406.7507 182.6519,408.0287 209.2889,414.8837 C210.7769,415.2647 212.2529,415.6637 213.7109,416.0867 C245.8979,425.3657 259.6289,443.5937 293.5679,454.6337 C312.2249,460.7087 330.2339,458.8397 342.0689,453.4487 C353.9069,448.0547 362.8919,439.9757 371.0639,425.6837 C380.7569,408.7277 383.6039,386.1497 391.8839,368.8907 C392.7779,367.0247 393.6749,365.1737 394.6829,363.3707 C402.1769,349.9997 409.6889,341.0717 419.1239,329.0147 C436.4099,306.9317 461.2589,277.6127 481.5689,248.2637 C494.6609,229.3487 508.9469,209.8547 511.7849,186.8537 C514.7219,163.0157 501.0089,136.6517 477.9959,129.4697 C461.8589,124.4357 445.0469,127.6877 429.5909,134.8487 C404.2679,146.6087 378.5729,164.0837 349.9079,159.3017 C345.0959,158.5127 340.4009,157.1027 335.8019,155.0717 C308.6639,142.9757 298.3019,111.5447 279.6779,89.6567 C265.0799,72.4967 245.8379,58.6547 223.4489,54.1757 C191.3579,47.7917 158.5079,60.6917 131.0639,77.4557 C116.2439,86.5187 101.7599,98.2337 92.1119,112.4027 Z" id="Stroke-13" stroke="url(#linearGradient-7)" stroke-width="3.012" stroke-dasharray="0,6.023999691009521"></path>
                <path d="M102.3248,117.2279 C96.4538,126.0239 92.6588,135.6869 92.2238,146.1569 C91.6028,161.0759 97.5788,174.7259 102.2378,189.0689 C104.0978,194.7239 105.7268,200.4929 106.6088,206.4989 C110.9468,236.1209 93.0908,261.6719 104.8868,286.6619 C113.9438,305.8469 124.6628,310.9169 128.0168,333.2999 C130.7018,351.2159 129.0488,366.8909 142.8908,381.5099 C160.8218,400.4429 191.4278,404.1539 217.3118,409.6379 C218.7608,409.9409 220.1918,410.2529 221.6138,410.5739 C252.9668,417.6749 269.2148,428.5679 301.8368,439.1219 C319.6118,444.8819 336.2438,445.5959 348.1328,443.0489 C360.0218,440.5019 370.3898,435.4409 379.5818,422.9549 C390.5078,408.1109 393.4988,385.8989 399.1358,368.7719 C399.7538,366.8879 400.3448,365.0219 401.0168,363.1949 C406.0448,349.5869 410.4878,339.6659 417.5168,327.0389 C430.5608,303.6089 453.7118,274.8869 473.7038,247.1669 C487.7708,227.6609 503.5058,207.8759 506.8508,183.8819 C510.2858,159.2249 495.4988,131.1509 471.0848,124.8149 C455.3168,120.7229 439.5068,124.5629 424.9208,132.0209 C401.0138,144.2609 377.1518,162.1169 349.5098,158.2469 C344.8538,157.6079 340.3208,156.3599 335.8928,154.5239 C309.8738,143.6459 298.0688,114.4169 279.2948,94.1879 C264.9128,78.6929 246.4688,66.5399 225.4238,62.6279 C195.1748,57.0389 164.2118,68.3819 138.5708,84.1259 C124.6358,92.6849 111.2948,103.7909 102.3248,117.2279 Z" id="Stroke-15" stroke="url(#linearGradient-8)" stroke-width="3.015" stroke-dasharray="0,6.027000188827515"></path>
                <path d="M112.5407,122.0531 C107.2547,130.1501 103.7597,138.9971 102.9947,148.5131 C101.9057,162.1421 106.2227,174.9551 109.9787,188.2841 C111.4757,193.5191 112.8587,198.8381 113.7467,204.3281 C118.1027,231.3641 107.1497,255.4961 119.7797,277.4381 C130.9397,296.8271 141.8267,300.4271 144.0377,324.1391 C145.7627,342.6551 141.8627,358.7951 155.2517,374.8481 C171.2867,394.0751 200.2097,400.2761 225.3347,404.3861 C226.7387,404.6171 228.1337,404.8421 229.5167,405.0641 C260.0357,409.9871 278.8037,413.5391 310.1057,423.6131 C326.9957,429.0551 342.2477,432.3551 354.1967,432.6491 C366.1397,432.9491 377.8967,430.9091 388.0997,420.2321 C400.2617,407.4941 403.3517,385.6361 406.3847,368.6501 C406.7267,366.7451 407.0117,364.8671 407.3537,363.0191 C409.8977,349.1711 411.2567,338.2511 415.9127,325.0571 C424.6607,300.2621 446.2037,272.1911 465.8357,246.0731 C480.9197,226.0001 498.0167,205.8851 501.9137,180.9101 C505.8077,155.4251 490.0037,125.5331 464.1707,120.1601 C448.7777,116.9561 433.9637,121.4381 420.2507,129.1871 C397.7567,141.9131 375.7337,160.1471 349.1087,157.1891 C344.6087,156.7001 340.2407,155.6171 335.9837,153.9791 C311.0807,144.3161 297.8627,117.2621 278.9117,98.7191 C264.7637,84.8741 247.1027,74.4251 227.3987,71.0771 C198.9947,66.2831 169.9157,76.0721 146.0747,90.7931 C133.0277,98.8571 120.8327,109.3511 112.5407,122.0531 Z" id="Stroke-17" stroke="url(#linearGradient-9)" stroke-width="3.015" stroke-dasharray="0,6.032999753952026"></path>
                <path d="M122.7536,126.8783 C118.0556,134.2763 114.8366,142.3073 113.7686,150.8723 C112.1816,163.2083 114.8636,175.1813 117.7166,187.4993 C118.8506,192.3143 119.9936,197.1833 120.8876,202.1543 C125.2586,226.6043 121.3466,249.1253 134.6726,268.2113 C148.1876,287.5763 159.0236,289.9433 160.0586,314.9783 C160.8446,334.1033 154.7936,350.6483 167.6096,368.1863 C181.8536,387.6713 208.9886,396.3983 233.3576,399.1403 C234.7196,399.2933 236.0756,399.4313 237.4226,399.5543 C267.1046,402.2963 288.3896,398.5133 318.3716,408.1013 C334.3826,413.2283 348.2576,419.1083 360.2576,422.2523 C372.2576,425.3963 385.4066,426.3803 396.6146,417.5033 C410.0216,406.8863 413.1566,385.3823 413.6366,368.5313 C413.6906,366.6083 413.6816,364.7123 413.6876,362.8433 C413.7386,348.7583 411.9956,336.8393 414.3086,323.0753 C418.7006,296.9243 438.7256,269.5283 457.9676,244.9733 C474.1046,224.3783 492.5756,203.9033 496.9796,177.9413 C501.3776,151.6343 484.5116,119.7953 457.2596,115.5023 C442.2326,113.1383 428.4236,118.3163 415.5806,126.3533 C394.5026,139.5653 374.3156,158.1833 348.7106,156.1343 C344.3666,155.7953 340.1636,154.8713 336.0746,153.4313 C312.2906,144.9863 297.6806,120.0833 278.5256,103.2503 C264.6296,91.0343 247.7306,82.3133 229.3736,79.5293 C202.8176,75.5303 175.6166,83.7623 153.5786,97.4603 C141.4226,105.0263 130.3616,114.9023 122.7536,126.8783 Z" id="Stroke-19" stroke="url(#linearGradient-10)" stroke-width="3.018" stroke-dasharray="0,6.03600025177002"></path>
                <path d="M132.9665,131.7035 C128.8355,138.3905 125.9375,145.6205 124.5395,153.2315 C122.4845,164.2775 123.5075,175.4075 125.4605,186.7145 C126.2285,191.1065 127.1315,195.5255 128.0285,199.9835 C132.4145,221.8445 135.5855,242.5085 149.5655,258.9905 C165.6875,278.0015 176.2475,279.4775 176.0765,305.8205 C175.9475,325.5635 167.8445,342.4565 179.9705,361.5215 C192.5255,381.2645 217.7675,392.5205 241.3805,393.8915 C242.7005,393.9695 244.0175,394.0175 245.3255,394.0415 C274.1705,394.6025 297.9785,383.4845 326.6375,392.5895 C341.7695,397.3985 354.2645,405.8675 366.3185,411.8555 C378.3755,417.8435 392.9255,421.8785 405.1325,414.7775 C419.7935,406.3055 422.9225,385.1555 420.8885,368.4095 C420.6545,366.4745 420.3455,364.5605 420.0215,362.6675 C417.5705,348.3545 412.7105,335.4425 412.7045,321.0965 C412.6895,293.6165 431.2775,266.8955 450.0995,243.8795 C467.3405,222.7955 487.1405,201.9215 492.0425,174.9665 C496.9475,147.8435 479.0075,113.9165 450.3485,110.8475 C435.6695,109.2725 422.8835,115.1915 410.9105,123.5195 C391.2485,137.2145 372.8945,156.2135 348.3125,155.0765 C344.1215,154.8905 340.0805,154.1285 336.1655,152.8835 C313.5005,145.6535 297.5195,122.8655 278.1425,107.7785 C264.5105,97.1675 248.3615,90.1955 231.3515,87.9815 C206.6375,84.7745 181.3205,91.4525 161.0825,104.1305 C149.8115,111.1925 139.8665,120.4385 132.9665,131.7035 Z" id="Stroke-21" stroke="url(#linearGradient-11)" stroke-width="3.021" stroke-dasharray="0,6.039000034332275"></path>
                <path d="M133.2008,185.9291 C135.5948,209.3321 146.7578,232.7231 164.4578,249.7661 C183.4058,268.0091 193.5008,269.0201 192.0968,296.6591 C191.0618,317.0351 181.0328,334.2401 192.3278,354.8621 C203.2898,374.8781 226.5458,388.6421 249.4028,388.6421 C278.8538,388.6421 306.3248,368.0651 334.9028,377.0801 C349.1528,381.5741 360.2708,392.6231 372.3818,401.4581 C384.4928,410.2901 400.4228,417.3461 413.6498,412.0511 C429.5408,405.6941 432.6698,384.9761 428.1398,368.2901 C423.6098,351.6101 413.7158,336.0491 411.0998,319.1171 C406.6508,290.3561 423.8438,264.2951 442.2338,242.7791 C460.6238,221.2631 481.7018,199.9391 487.1108,171.9941 C492.5168,144.0521 473.4758,107.8991 443.4368,106.1921 C405.4808,104.0321 385.8038,154.3841 347.9138,154.0211 C320.6648,153.7601 300.7868,127.9031 277.7558,112.3091 C233.9198,82.6331 168.0248,94.4921 143.1788,136.5281 C134.4548,151.2911 131.4278,168.6161 133.2008,185.9291 Z" id="Stroke-23" stroke="url(#linearGradient-12)" stroke-width="3.021" stroke-dasharray="0,6.045000314712524"></path>
            </g>
        </g>
    </g>
</svg>