<?xml version="1.0" encoding="UTF-8"?>
<svg width="519px" height="587px" viewBox="0 0 519 587" version="1.1" xmlns="http://www.w3.org/2000/svg" xmlns:xlink="http://www.w3.org/1999/xlink">
    <title>B0E73181-FE4E-4BAC-ACC0-9AE231188A53</title>
    <g id="Page-1" stroke="none" stroke-width="1" fill="none" fill-rule="evenodd">
        <g id="Homepage_II" transform="translate(-1129.000000, -173.000000)" fill-rule="nonzero">
            <g id="Asset-9" transform="translate(1129.000000, 173.000000)">
                <path d="M259.453249,0 L99,293.377612 L259.408479,586.8 L265.138953,584.740267 C338.372399,558.943297 401.894629,511.231131 447.081476,448.081465 C493.619899,383.582849 518.581613,306.020912 518.4,226.481068 L518.4,73.6578405 L259.453249,0 Z" id="Path" fill="#E3F0E5"></path>
                <path d="M0,73.6634615 L0,226.498352 C0.0510605613,387.510186 101.961698,531.025247 254.388952,584.74011 L260.1,586.8 L260.1,0 L0,73.6634615 Z" id="Path" fill="#E3F0E5"></path>
                <path d="M450.00051,248.986575 C450.585178,241.0614 450.9,233.046675 450.9,225.03195 L450.9,124.153875 L259.80327,70.2 L133.2,249.3 L450.00051,248.986575 Z" id="Path" fill="#2B2B2B"></path>
                <path d="M259.2,70.2 L68.4,124.24846 L68.4,225.303381 C68.4,233.332156 68.7144068,241.360932 69.2983051,249.3 L259.2,249.3 L259.2,70.2 Z" id="Path" fill="#231F20"></path>
                <path d="M259.579994,196.2 L144.9,355.05 L259.579994,513.9 L266.660666,510.711323 C316.560822,488.107732 359.650036,452.747387 391.603153,408.179644 C424.953865,361.842377 444.854307,307.15757 449.1,250.182952 L259.579994,196.2 Z" id="Path" fill="#2B2B2B"></path>
                <path d="M68.4,250.182952 C72.6552117,307.15757 92.6002711,361.842377 126.025757,408.179644 C158.050514,452.747387 201.236335,488.107732 251.248368,510.711323 L258.3,513.9 L258.3,196.2 L68.4,250.182952 Z" id="Path" fill="#231F20"></path>
            </g>
        </g>
    </g>
</svg>