<svg width="55px" height="47px" viewBox="0 0 55 47" version="1.1" xmlns="http://www.w3.org/2000/svg"
                        xmlns:xlink="http://www.w3.org/1999/xlink">
        <title>DF6201B4-B8E9-41A1-A08C-EE8E29B381DF</title>
        <g id="Page-1" stroke="none" stroke-width="1" fill="none" fill-rule="evenodd">
            <g id="Homepage_II" transform="translate(-515.000000, -855.000000)" fill="#626262"
                fill-rule="nonzero">
                <g id="balance" transform="translate(515.000000, 855.000000)">
                    <path
                        d="M54.0651558,28.2913339 L47.8052189,14.8832347 L50.5074504,15.6583577 C51.1009108,15.8286664 51.7201358,15.4858656 51.8900078,14.8919685 C52.0603166,14.2985082 51.7175157,13.6797199 51.1240553,13.5094111 L32.3350742,8.11761191 C32.3390044,8.03726113 32.3411878,7.95691035 32.3411878,7.87612291 C32.3416245,5.64507881 30.8354841,3.69526243 28.6764937,3.13324365 C26.5175032,2.57078821 24.251524,3.53805438 23.1637316,5.48568724 L4.37300376,0.0943248253 C3.77954338,-0.075983943 3.16031831,0.267253672 2.99000965,0.860714059 C2.82013755,1.45417433 3.1629385,2.07296274 3.75639877,2.2432714 L7.46476193,3.30748259 L0.748921673,17.6920183 C0.300878697,17.8487897 -5.8815105e-07,18.2715047 -5.8815105e-07,18.7466223 C-0.00131007261,22.3759447 2.18606522,25.6476187 5.54027345,27.0332329 C8.89448168,28.4192839 12.7535024,27.6454709 15.3142467,25.0738093 C17.0203907,23.4104609 17.9841634,21.1296342 17.9885302,18.7466223 C17.9885302,18.2461768 17.6553366,17.8068676 17.1736686,17.6710573 L10.9320725,4.30269675 L22.54538,7.63463392 C22.5414498,7.7149847 22.5392664,7.79533548 22.5392664,7.87655958 C22.5427599,10.1512727 24.10829,12.1255437 26.3223032,12.6469503 L26.3223032,34.7910132 L23.2366587,34.7910132 C20.7711125,34.7910132 18.720421,36.769651 18.720421,39.2356338 L18.720421,39.8845537 C16.6457116,40.3212427 15.1561654,42.1457294 15.1430646,44.2662912 L15.1430646,45.8313846 C15.1618423,46.4624002 15.6740785,46.9672126 16.3055308,46.9763832 L38.5749234,46.9763832 C39.2063756,46.9672126 39.7186118,46.4624002 39.7373895,45.8313846 L39.7373895,44.2662912 C39.7242888,42.1457294 38.2347426,40.3212427 36.1600331,39.8845537 L36.1600331,39.2356338 C36.1600331,36.769651 34.1089049,34.7910132 31.6437955,34.7910132 L28.5581509,34.7910132 L28.5581509,12.6469503 C29.8979128,12.3303508 31.0433481,11.4665799 31.7167226,10.2661218 L44.3702232,13.8971909 L37.6404089,28.312295 C37.1919293,28.4690663 36.8914872,28.8917813 36.8910506,29.3664623 C36.8901771,32.9957846 39.0775525,36.2674587 42.4317607,37.6530729 C45.7859689,39.0391238 49.644553,38.2657476 52.2052973,35.6940859 C53.9114413,34.0303009 54.8756506,31.7494742 54.8800174,29.3664623 C54.8800174,28.8660167 54.5468238,28.4271442 54.0651558,28.2913339 Z M8.96609867,5.32280227 L14.686288,17.5749858 L3.24634602,17.5749858 L8.96609867,5.32280227 Z M8.96609867,25.4227238 C5.67346357,25.4419382 2.8572562,23.0611097 2.32886244,19.8108335 L15.6544275,19.8108335 C15.0854217,23.0584896 12.2635374,25.426654 8.96609867,25.4227238 Z M37.5015418,44.2662912 L37.5015418,44.7405355 L17.3789123,44.7405355 L17.3789123,44.2662912 C17.3789123,43.0335181 18.426966,42.0575182 19.6593024,42.0575182 L35.2211518,42.0575182 C36.4534881,42.0575182 37.5015418,43.0335181 37.5015418,44.2662912 Z M33.9241854,39.2356338 L33.9241854,39.8216705 L20.9562687,39.8216705 L20.9562687,39.2356338 C20.9562687,38.0028607 22.0043223,37.0268609 23.2366587,37.0268609 L31.6437955,37.0268609 C32.8761318,37.0268609 33.9241854,38.0028607 33.9241854,39.2356338 Z M27.4402271,10.5412367 C26.3035255,10.5421093 25.2912805,9.82244579 24.9187848,8.74862749 C24.546289,7.67480931 24.8952035,6.48308504 25.7877959,5.77957902 C26.6808248,5.07607301 27.9214584,5.01580998 28.8782439,5.62979467 C29.8350296,6.24334269 30.2974832,7.39576501 30.0306662,8.50058814 C30.0022815,8.57133181 29.9813204,8.6442589 29.967783,8.71893275 C29.6040211,9.80628832 28.5865358,10.5399259 27.4402271,10.5412367 Z M51.5777752,28.1952624 L40.1378333,28.1952624 L45.8575859,15.9430789 L51.5777752,28.1952624 Z M45.8575859,36.0430005 C42.5649508,36.0622148 39.7487434,33.6813863 39.2203497,30.4311101 L52.5459147,30.4311101 C51.9769089,33.6787662 49.1550246,36.0469306 45.8575859,36.0430005 Z"
                        id="Shape"></path>
                </g>
            </g>
        </g>
    </svg>