<svg width="76px" height="76px" viewBox="0 0 76 76" version="1.1" class="mb-8" xmlns="http://www.w3.org/2000/svg" xmlns:xlink="http://www.w3.org/1999/xlink">
    <title>
        6B13FB2D-106A-4654-87A4-7A8FE5B112E6
    </title>
    <g id="Page-1" stroke="none" stroke-width="1" fill="none" fill-rule="evenodd">
        <g id="Homepage_II" transform="translate(-1087.000000, -7435.000000)">
            <g id="Group-3" transform="translate(1087.000000, 7435.000000)">
                <circle id="Oval-Copy-6" stroke="#626262" stroke-width="2" cx="38" cy="38"
                    r="37">
                </circle>
                <g id="balance" transform="translate(16.000000, 19.000000)" fill="#626262"
                    fill-rule="nonzero">
                    <path
                        d="M43.2521246,22.6330671 L38.2441751,11.9065877 L40.4059604,12.5266861 C40.8807287,12.6629331 41.3761086,12.3886925 41.5120062,11.9135748 C41.6482532,11.4388065 41.3740126,10.9437759 40.8992443,10.8075289 L25.8680594,6.49408953 C25.8712035,6.4298089 25.8729502,6.36552828 25.8729502,6.30089833 C25.8732996,4.51606305 24.6683873,2.95620994 22.9411949,2.50659492 C21.2140026,2.05663057 19.4012192,2.83044351 18.5309853,4.38854979 L3.49840301,0.0754598603 C3.0236347,-0.0607871544 2.52825465,0.213802937 2.39200772,0.688571247 C2.25611004,1.16333947 2.5303508,1.65837019 3.00511902,1.79461712 L5.97180954,2.64598607 L0.599137339,14.1536147 C0.240702958,14.2790318 -4.70520838e-07,14.6172037 -4.70520838e-07,14.9972979 C-0.00104805809,17.9007557 1.74885218,20.518095 4.43221876,21.6265863 C7.11558534,22.7354271 10.2028019,22.1163768 12.2513974,20.0590474 C13.6163126,18.7283687 14.3873307,16.9037074 14.3908242,14.9972979 C14.3908242,14.5969414 14.1242693,14.2454941 13.7389349,14.1368458 L8.74565802,3.4421574 L18.036304,6.10770714 C18.0331599,6.17198776 18.0314131,6.23626838 18.0314131,6.30124766 C18.0342079,8.12101815 19.286632,9.70043493 21.0578426,10.1175602 L21.0578426,27.8328105 L18.589327,27.8328105 C16.61689,27.8328105 14.9763368,29.4157208 14.9763368,31.3885071 L14.9763368,31.907643 C13.3165693,32.2569942 12.1249323,33.7165835 12.1144517,35.4130329 L12.1144517,36.6651077 C12.1294738,37.1699201 12.5392628,37.5737701 13.0444247,37.5811066 L30.8599387,37.5811066 C31.3651005,37.5737701 31.7748894,37.1699201 31.7899116,36.6651077 L31.7899116,35.4130329 C31.7794311,33.7165835 30.5877941,32.2569942 28.9280265,31.907643 L28.9280265,31.3885071 C28.9280265,29.4157208 27.2871239,27.8328105 25.3150364,27.8328105 L22.8465207,27.8328105 L22.8465207,10.1175602 C23.9183302,9.86428062 24.8346785,9.17326389 25.3733781,8.21289745 L35.4961786,11.1177527 L30.1123271,22.649836 C29.7535434,22.7752531 29.5131898,23.113425 29.5128405,23.4931698 C29.5121417,26.3966277 31.262042,29.0139669 33.9454085,30.1224583 C36.6287751,31.2312991 39.7156424,30.6125981 41.7642378,28.5552687 C43.129153,27.2242407 43.9005205,25.3995793 43.904014,23.4931698 C43.904014,23.0928134 43.637459,22.7417154 43.2521246,22.6330671 Z M7.17287894,4.25824181 L11.7490304,14.0599886 L2.59707681,14.0599886 L7.17287894,4.25824181 Z M7.17287894,20.3381791 C4.53877085,20.3535505 2.28580496,18.4488878 1.86308995,15.8486668 L12.523542,15.8486668 C12.0683374,18.4467917 9.81082991,20.3413232 7.17287894,20.3381791 Z M30.0012334,35.4130329 L30.0012334,35.7924284 L13.9031299,35.7924284 L13.9031299,35.4130329 C13.9031299,34.4268145 14.7415728,33.6460146 15.7274419,33.6460146 L28.1769215,33.6460146 C29.1627905,33.6460146 30.0012334,34.4268145 30.0012334,35.4130329 Z M27.1393483,31.3885071 L27.1393483,31.8573364 L16.7650149,31.8573364 L16.7650149,31.3885071 C16.7650149,30.4022886 17.6034578,29.6214887 18.589327,29.6214887 L25.3150364,29.6214887 C26.3009054,29.6214887 27.1393483,30.4022886 27.1393483,31.3885071 Z M21.9521816,8.43298939 C21.0428204,8.43368742 20.2330244,7.85795663 19.9350278,6.99890199 C19.6370312,6.13984745 19.9161628,5.18646803 20.6302367,4.62366322 C21.3446599,4.06085841 22.3371667,4.01264798 23.1025951,4.50383573 C23.8680236,4.99467415 24.2379866,5.91661201 24.024533,6.80047051 C24.0018252,6.85706545 23.9850563,6.91540712 23.9742264,6.9751462 C23.6832169,7.84503066 22.8692286,8.43194068 21.9521816,8.43298939 Z M41.2622202,22.5562099 L32.1102666,22.5562099 L36.6860687,12.7544631 L41.2622202,22.5562099 Z M36.6860687,28.8344004 C34.0519606,28.8497718 31.7989947,26.9451091 31.3762797,24.3448881 L42.0367318,24.3448881 C41.5815271,26.943013 39.3240197,28.8375445 36.6860687,28.8344004 Z"
                        id="Shape"></path>
                </g>
            </g>
        </g>
    </g>
</svg>