<svg width="89px" height="89px" viewBox="0 0 89 89" version="1.1"
                                    xmlns="http://www.w3.org/2000/svg" xmlns:xlink="http://www.w3.org/1999/xlink">
    <title>
        FC7321C9-2580-4D0D-9099-B59709E5F8CB
    </title>
    <g id="Page-1" stroke="none" stroke-width="1" fill="none" fill-rule="evenodd">
        <g id="Homepage_II" transform="translate(-1131.000000, -5177.000000)">
            <g id="Group-7" transform="translate(1131.000000, 5177.000000)">
                <circle id="Oval-Copy-4" stroke="#626262" stroke-width="2" cx="44.5"
                    cy="44.5" r="43.5">
                </circle>
                <path
                    d="M62.6810699,39.3916733 C62.6810699,39.7070936 62.4876645,39.9898179 62.1936884,40.1052155 L61.4858248,40.3879398 C61.4645502,40.395633 61.4432756,40.4033262 61.4239351,40.4129426 L47.5548375,45.9289512 C46.8605123,44.8980654 45.6807397,44.2210657 44.3404406,44.2210657 C43.0426907,44.2210657 41.9035332,44.8595995 41.2014718,45.8327865 L27.5489882,40.4014029 C27.5412519,40.3975563 27.5335157,40.395633 27.5257795,40.3937097 L26.8063116,40.1052155 C26.5123355,39.9898179 26.3189301,39.7070936 26.3189301,39.3916733 L26.3189301,33.002489 C26.3189301,31.5157823 27.5354498,30.3079534 29.0285391,30.3079534 L59.973395,30.3079534 C61.4645502,30.3079534 62.6810699,31.5157823 62.6810699,33.002489 L62.6810699,39.3916733 Z M60.7412142,56.997511 C60.7412142,58.4842177 59.5246946,59.6920466 58.0335393,59.6920466 L30.9567904,59.6920466 C29.4637011,59.6920466 28.2471815,58.4842177 28.2471815,56.997511 L28.2471815,43.1651771 L40.4762017,48.0291888 C40.4762017,48.0426519 40.4723336,48.0541917 40.4723336,48.0676547 C40.4723336,50.1909718 42.2033115,51.9142437 44.3404406,51.9142437 C46.4427567,51.9142437 48.1466579,50.2409775 48.1988773,48.1599728 L60.7412142,43.1709469 L60.7412142,56.997511 Z M59.973395,28 L29.0285391,28 C26.2551064,28 24,30.2444847 24,33.002489 L24,39.3916733 C24,40.6495079 24.758149,41.7650187 25.9282513,42.2381491 L25.9282513,56.997511 C25.9282513,59.7555153 28.1833577,62 30.9567904,62 L58.0335393,62 C60.805038,62 63.0601443,59.7555153 63.0601443,56.997511 L63.0601443,42.2458423 C64.239917,41.7727118 65,40.6552777 65,39.3916733 L65,33.002489 C65,30.2444847 62.7448936,28 59.973395,28 L59.973395,28 Z"
                    id="Briefcase" fill="#626262"></path>
            </g>
        </g>
    </g>
</svg>