<svg width="76px" height="76px" viewBox="0 0 76 76" class="mb-8" version="1.1" xmlns="http://www.w3.org/2000/svg" xmlns:xlink="http://www.w3.org/1999/xlink">
    <title>
        3B962557-F1E5-4A1E-A3B9-A02CF285A88C
    </title>
    <g id="Page-1" stroke="none" stroke-width="1" fill="none" fill-rule="evenodd">
        <g id="Homepage_II" transform="translate(-323.000000, -7845.000000)">
            <g id="Group-5" transform="translate(323.000000, 7845.000000)">
                <circle id="Oval-Copy-7" stroke="#626262" stroke-width="2" cx="38" cy="38"
                    r="37">
                </circle>
                <path
                    d="M37.4326608,30.0738537 C37.8361787,30.4833742 37.8361787,31.1484074 37.4326608,31.559678 L29.9244697,39.179559 C29.7296086,39.3755688 29.4674944,39.4858243 29.1933092,39.4858243 C28.919124,39.4858243 28.653561,39.3755688 28.4621486,39.179559 L25.6151061,36.2901645 C25.2115882,35.8788939 25.2115882,35.2156108 25.6151061,34.8043402 C26.0203483,34.3948197 26.6773582,34.3965698 27.0774271,34.8043402 L29.1933092,36.9516976 L35.9686153,30.0738537 C36.3738576,29.6643332 37.029143,29.6643332 37.4326608,30.0738537 L37.4326608,30.0738537 Z M55.9289533,47.0987049 L55.1167443,47.0987049 C54.6408001,44.9268463 52.7284014,43.2975149 50.4486981,43.2975149 C48.1689947,43.2975149 46.2548715,44.9268463 45.7823763,47.0987049 L44.9701673,47.0987049 L44.9701673,37.9842492 L55.9289533,37.9842492 L55.9289533,47.0987049 Z M50.4486981,50.8981449 C48.9553371,50.8981449 47.7413347,49.6660833 47.7413347,48.1487574 L47.7396103,48.1470074 C47.7413347,46.6296815 48.9570616,45.3976199 50.4486981,45.3976199 C51.9437834,45.3976199 53.1595103,46.6314316 53.1595103,48.1487574 C53.1595103,49.6660833 51.9437834,50.8981449 50.4486981,50.8981449 L50.4486981,50.8981449 Z M44.9701673,31.2359118 L51.8592861,31.2359118 C52.1938265,31.2359118 52.5093982,31.4179209 52.6818417,31.7084354 L55.1426108,35.8771439 L44.9701673,35.8771439 L44.9701673,31.2359118 Z M42.900845,30.1858593 L42.900845,36.9289464 L42.900845,36.9341967 L42.900845,47.0987049 L31.569581,47.0987049 C31.0953613,44.9250963 29.1881359,43.2905145 26.9067081,43.2905145 C24.6218314,43.2905145 22.714606,44.9250963 22.2403863,47.0987049 L20.0693223,47.0987049 L20.0693223,28.0927546 C20.0693223,26.4424221 21.3919641,25.100105 23.019831,25.100105 L39.9503363,25.100105 C41.5764787,25.100105 42.900845,26.4424221 42.900845,28.0927546 L42.900845,30.1858593 Z M29.6157958,48.1610081 C29.6071737,49.6695835 28.3948957,50.8946447 26.9067081,50.8946447 C25.4098983,50.8946447 24.192447,49.660833 24.192447,48.1435072 C24.192447,46.6261813 25.4098983,45.3906195 26.9067081,45.3906195 C28.3983445,45.3906195 29.612347,46.620931 29.6175203,48.1330067 C29.6175203,48.1382569 29.6140714,48.1435072 29.6140714,48.1487574 C29.6140714,48.1540077 29.6157958,48.1575079 29.6157958,48.1610081 L29.6157958,48.1610081 Z M57.9741335,36.8029401 C57.9586136,36.680434 57.9310226,36.5649282 57.8775651,36.459923 C57.8689429,36.4389219 57.8723918,36.4144207 57.8603207,36.3934197 L54.4562856,30.6286314 C53.9130885,29.7080854 52.9163649,29.1358068 51.8592861,29.1358068 L44.9701673,29.1358068 L44.9701673,28.0927546 C44.9701673,25.2856143 42.7180548,23 39.9503363,23 L23.019831,23 C20.250388,23 18,25.2856143 18,28.0927546 L18,48.1487574 C18,48.7297865 18.4621486,49.1988099 19.0346611,49.1988099 L22.2438351,49.1988099 C22.7232281,51.3671684 24.6270047,52.9964998 26.9067081,52.9964998 C29.184687,52.9964998 31.0884635,51.3671684 31.5661321,49.1988099 L43.9355061,49.1988099 L45.7909984,49.1988099 C46.2652181,51.3689184 48.1707191,53 50.4486981,53 C52.7284014,53 54.6356268,51.3689184 55.1098465,49.1988099 L56.9636144,49.1988099 C57.5344025,49.1988099 58,48.7297865 58,48.1487574 L58,36.9534477 C58,36.900945 57.9810312,36.8554428 57.9741335,36.8029401 L57.9741335,36.8029401 Z"
                    id="Free-delivery-shipment" fill="#626262"></path>
            </g>
        </g>
    </g>
</svg>