<svg width="50px" height="37px" viewBox="0 0 50 37" version="1.1" xmlns="http://www.w3.org/2000/svg"
                        xmlns:xlink="http://www.w3.org/1999/xlink">
    <title>60973BA2-D98D-447F-897E-52C1B6A24E2E</title>
    <g id="Page-1" stroke="none" stroke-width="1" fill="none" fill-rule="evenodd">
        <g id="Homepage_II" transform="translate(-823.000000, -865.000000)" fill="#626262">
            <path
                d="M847.290826,873.72442 C847.795223,874.229495 847.795223,875.049702 847.290826,875.556936 L837.905587,884.954789 C837.662011,885.196535 837.334368,885.332517 836.991636,885.332517 C836.648905,885.332517 836.316951,885.196535 836.077686,884.954789 L832.518883,881.391203 C832.014485,880.883969 832.014485,880.06592 832.518883,879.558686 C833.025435,879.053611 833.846698,879.055769 834.346784,879.558686 L836.991636,882.207094 L845.460769,873.72442 C845.967322,873.219344 846.786429,873.219344 847.290826,873.72442 L847.290826,873.72442 Z M870.411192,894.721736 L869.39593,894.721736 C868.801,892.04311 866.410502,890.033602 863.560873,890.033602 C860.711243,890.033602 858.318589,892.04311 857.72797,894.721736 L856.712709,894.721736 L856.712709,883.480574 L870.411192,883.480574 L870.411192,894.721736 Z M863.560873,899.407712 C861.694171,899.407712 860.176668,897.888169 860.176668,896.016801 L860.174513,896.014642 C860.176668,894.143274 861.696327,892.623731 863.560873,892.623731 C865.429729,892.623731 866.949388,894.145432 866.949388,896.016801 C866.949388,897.888169 865.429729,899.407712 863.560873,899.407712 L863.560873,899.407712 Z M856.712709,875.157625 L865.324108,875.157625 C865.742283,875.157625 866.136748,875.382102 866.352302,875.740404 L869.428263,880.881811 L856.712709,880.881811 L856.712709,875.157625 Z M854.126056,873.86256 L854.126056,882.179034 L854.126056,882.185509 L854.126056,894.721736 L839.961976,894.721736 C839.369202,892.040952 836.98517,890.024968 834.133385,890.024968 C831.277289,890.024968 828.893257,892.040952 828.300483,894.721736 L825.586653,894.721736 L825.586653,871.281064 C825.586653,869.245654 827.239955,867.59013 829.274789,867.59013 L850.43792,867.59013 C852.470598,867.59013 854.126056,869.245654 854.126056,871.281064 L854.126056,873.86256 Z M837.519745,896.03191 C837.508967,897.892486 835.99362,899.403395 834.133385,899.403395 C832.262373,899.403395 830.740559,897.881694 830.740559,896.010326 C830.740559,894.138957 832.262373,892.615097 834.133385,892.615097 C835.997931,892.615097 837.515434,894.132482 837.5219,895.997375 C837.5219,896.00385 837.517589,896.010326 837.517589,896.016801 C837.517589,896.023276 837.519745,896.027593 837.519745,896.03191 L837.519745,896.03191 Z M872.967667,882.023626 C872.948267,881.872535 872.913778,881.730078 872.846956,881.600572 C872.836179,881.57467 872.84049,881.544452 872.825401,881.518551 L868.570357,874.408645 C867.891361,873.273305 866.645456,872.567495 865.324108,872.567495 L856.712709,872.567495 L856.712709,871.281064 C856.712709,867.818924 853.897569,865 850.43792,865 L829.274789,865 C825.812985,865 823,867.818924 823,871.281064 L823,896.016801 C823,896.733403 823.577686,897.311866 824.293326,897.311866 L828.304794,897.311866 C828.904035,899.986174 831.283756,901.995683 834.133385,901.995683 C836.980859,901.995683 839.360579,899.986174 839.957665,897.311866 L855.419383,897.311866 L857.738748,897.311866 C858.331523,899.988333 860.713399,902 863.560873,902 C866.410502,902 868.794534,899.988333 869.387308,897.311866 L871.704518,897.311866 C872.418003,897.311866 873,896.733403 873,896.016801 L873,882.209252 C873,882.144499 872.976289,882.088379 872.967667,882.023626 L872.967667,882.023626 Z"
                id="Free-delivery-shipment"></path>
        </g>
    </g>
</svg>