<svg width="36px" height="41px" viewBox="0 0 36 41" version="1.1" xmlns="http://www.w3.org/2000/svg"
                        xmlns:xlink="http://www.w3.org/1999/xlink">
    <title>F5F1855C-2888-46EC-94B3-C40F5994CE51</title>
    <g id="Page-1" stroke="none" stroke-width="1" fill="none" fill-rule="evenodd">
        <g id="Homepage_II" transform="translate(-193.000000, -861.000000)" fill="#626262">
            <path
                d="M219.017917,876.067167 C219.472531,876.523704 219.472531,877.265088 219.017917,877.723575 L209.486562,887.295233 C209.259255,887.523501 208.960065,887.638611 208.662817,887.638611 C208.365569,887.638611 208.066379,887.523501 207.839072,887.295233 L202.982083,882.417707 C202.527469,881.96117 202.527469,881.219786 202.982083,880.761299 C203.436697,880.304762 204.173017,880.304762 204.629574,880.761299 L208.662817,884.811597 L217.370426,876.067167 C217.826983,875.610631 218.563303,875.610631 219.017917,876.067167 L219.017917,876.067167 Z M226.668645,878.383017 C226.668645,885.55103 223.068645,892.122033 217.040151,895.959671 L211.417701,899.539776 C211.163195,899.699759 210.836805,899.699759 210.582299,899.539776 L204.959849,895.959671 C198.931355,892.122033 195.333297,885.55103 195.333297,878.383017 L195.333297,872.924089 C195.333297,872.643144 195.482893,872.383659 195.725742,872.245137 L211,863.518267 L226.276201,872.245137 C226.517107,872.383659 226.668645,872.643144 226.668645,872.924089 L226.668645,878.383017 Z M227.428278,870.210233 L211.57701,861.153642 C211.217593,860.948786 210.782407,860.948786 210.42299,861.153642 L194.573664,870.210233 C193.602267,870.76432 193,871.802258 193,872.924089 L193,878.383017 C193,886.356797 197.006044,893.667234 203.710631,897.937996 L209.336967,901.5181 C209.842094,901.840017 210.419104,902 211,902 C211.580896,902 212.157906,901.840017 212.663033,901.5181 L212.664976,901.5181 L218.289369,897.937996 C224.993956,893.667234 229,886.356797 229,878.383017 L229,872.924089 C229,871.802258 228.397733,870.76432 227.428278,870.210233 L227.428278,870.210233 Z"
                id="Secured"></path>
        </g>
    </g>
</svg>