<svg width="76px" height="76px" viewBox="0 0 76 76" version="1.1" xmlns="http://www.w3.org/2000/svg" xmlns:xlink="http://www.w3.org/1999/xlink">
    <title>
        25F16687-DCAE-4313-8775-B0D835CBF15A
    </title>
    <g id="Page-1" stroke="none" stroke-width="1" fill="none" fill-rule="evenodd">
        <g id="Homepage_II" transform="translate(-323.000000, -7435.000000)">
            <g id="Group-4" transform="translate(323.000000, 7435.000000)">
                <circle id="Oval-Copy-5" stroke="#626262" stroke-width="2" cx="38" cy="38"
                    r="37">
                </circle>
                <path
                    d="M46.0179169,32.0671671 C46.472531,32.5237036 46.472531,33.2650876 46.0179169,33.7235751 L36.4865623,43.2952331 C36.2592553,43.5235014 35.9600648,43.638611 35.6628171,43.638611 C35.3655693,43.638611 35.0663788,43.5235014 34.8390718,43.2952331 L29.9820831,38.4177066 C29.527469,37.9611701 29.527469,37.2197861 29.9820831,36.7612986 C30.4366972,36.3047621 31.1730167,36.3047621 31.6295737,36.7612986 L35.6628171,40.8115966 L44.3704263,32.0671671 C44.8269833,31.6106306 45.5633028,31.6106306 46.0179169,32.0671671 L46.0179169,32.0671671 Z M53.6686454,34.3830167 C53.6686454,41.5510296 50.0686454,48.1220333 44.0401511,51.9596712 L38.417701,55.5397756 C38.1631948,55.6997585 37.8368052,55.6997585 37.582299,55.5397756 L31.9598489,51.9596712 C25.9313546,48.1220333 22.3332974,41.5510296 22.3332974,34.3830167 L22.3332974,28.924089 C22.3332974,28.6431435 22.4828926,28.3836591 22.725742,28.2451373 L38,19.5182669 L53.2762008,28.2451373 C53.5171074,28.3836591 53.6686454,28.6431435 53.6686454,28.924089 L53.6686454,34.3830167 Z M54.4282785,26.2102333 L38.5770103,17.1536421 C38.2175931,16.948786 37.7824069,16.948786 37.4229897,17.1536421 L21.5736643,26.2102333 C20.6022666,26.7643203 20,27.8022579 20,28.924089 L20,34.3830167 C20,42.356797 24.0060443,49.6672337 30.7106314,53.9379959 L36.3369671,57.5181004 C36.8420939,57.8400171 37.4191042,58 38,58 C38.5808958,58 39.1579061,57.8400171 39.6630329,57.5181004 L39.6649757,57.5181004 L45.2893686,53.9379959 C51.9939557,49.6672337 56,42.356797 56,34.3830167 L56,28.924089 C56,27.8022579 55.3977334,26.7643203 54.4282785,26.2102333 L54.4282785,26.2102333 Z"
                    id="Secured" fill="#626262"></path>
            </g>
        </g>
    </g>
</svg>