<svg width="20px" height="20px" class="" viewBox="0 0 20 20" version="1.1" xmlns="http://www.w3.org/2000/svg" xmlns:xlink="http://www.w3.org/1999/xlink">
    <title>7C11BE48-8EA2-4F28-82C7-5E5D895E5802</title>
    <g id="Page-1" stroke="none" stroke-width="1" fill="none" fill-rule="evenodd">
        <g id="Homepage_II" transform="translate(-1606.000000, -10763.000000)"
            fill="#626262">
            <path
                d="M1620.33936,10773 C1620.33936,10773.3123 1620.08651,10773.566 1619.77329,10773.566 L1616.56559,10773.566 L1616.56559,10776.7736 C1616.56559,10777.0858 1616.31275,10777.3396 1615.99953,10777.3396 C1615.68631,10777.3396 1615.43441,10777.0858 1615.43441,10776.7736 L1615.43441,10773.566 L1612.22577,10773.566 C1611.91254,10773.566 1611.66064,10773.3123 1611.66064,10773 C1611.66064,10772.6877 1611.91254,10772.434 1612.22577,10772.434 L1615.43441,10772.434 L1615.43441,10769.2264 C1615.43441,10768.9142 1615.68631,10768.6604 1615.99953,10768.6604 C1616.31275,10768.6604 1616.56559,10768.9142 1616.56559,10769.2264 L1616.56559,10772.434 L1619.77329,10772.434 C1620.08651,10772.434 1620.33936,10772.6877 1620.33936,10773 M1615.99953,10781.8679 C1611.10967,10781.8679 1607.13119,10777.8906 1607.13119,10773 C1607.13119,10768.1094 1611.10967,10764.1321 1615.99953,10764.1321 C1620.89033,10764.1321 1624.86881,10768.1094 1624.86881,10773 C1624.86881,10777.8906 1620.89033,10781.8679 1615.99953,10781.8679 M1615.99953,10763 C1610.48606,10763 1606,10767.4858 1606,10773 C1606,10778.5142 1610.48606,10783 1615.99953,10783 C1621.51394,10783 1626,10778.5142 1626,10773 C1626,10767.4858 1621.51394,10763 1615.99953,10763"
                id="Plus-Copy"></path>
        </g>
    </g>
</svg>