<svg width="40px" height="37px" viewBox="0 0 40 37" version="1.1" xmlns="http://www.w3.org/2000/svg"
                        xmlns:xlink="http://www.w3.org/1999/xlink">
    <title>02E67C9E-93C4-4FFF-A157-A3A08AABEA34</title>
    <g id="Page-1" stroke="none" stroke-width="1" fill="none" fill-rule="evenodd">
        <g id="Homepage_II" transform="translate(-1155.000000, -865.000000)" fill="#626262">
            <path
                d="M1184.3867,880.417299 C1184.3867,881.047119 1183.87912,881.555527 1183.25455,881.555527 L1166.74411,881.555527 C1166.11955,881.555527 1165.61385,881.047119 1165.61385,880.417299 C1165.61385,879.787479 1166.11955,879.279071 1166.74411,879.279071 L1183.25455,879.279071 C1183.87912,879.279071 1184.3867,879.787479 1184.3867,880.417299 M1188.92093,889.606594 C1188.119,890.414735 1187.21706,891.103363 1186.24341,891.661095 C1185.19618,892.260562 1184.56973,893.305835 1184.56973,894.457342 L1184.56973,899.012151 L1178.35803,894.354902 C1177.75988,893.753538 1176.96738,893.421555 1176.12393,893.421555 L1170.2764,893.421555 C1163.10238,893.421555 1157.2624,887.563474 1157.2624,880.360388 C1157.2624,876.856542 1158.61154,873.572754 1161.05697,871.116079 C1163.53826,868.640433 1166.81393,867.276456 1170.2764,867.276456 L1179.13543,867.276456 C1182.82811,867.276456 1186.44342,868.820652 1189.05302,871.514459 C1191.51355,874.054604 1192.82117,877.321319 1192.73249,880.715135 C1192.64569,884.086187 1191.29278,887.242873 1188.92093,889.606594 M1190.67387,869.924733 C1187.6435,866.794606 1183.43569,865 1179.13543,865 L1170.2764,865 C1166.212,865 1162.37215,866.597313 1159.45876,869.503589 C1156.58312,872.392791 1155,876.249487 1155,880.360388 C1155,888.817422 1161.85325,895.699908 1170.2764,895.699908 L1176.12393,895.699908 C1176.36168,895.699908 1176.58622,895.792863 1176.87869,896.069832 L1184.17348,901.539018 C1184.47161,901.840648 1184.86786,902 1185.27354,902 C1185.47355,902 1185.67734,901.962059 1185.86981,901.880486 C1186.45475,901.639561 1186.83213,901.070447 1186.83213,900.434936 L1186.83213,894.457342 C1186.83213,894.134844 1187.03025,893.82942 1187.36424,893.639715 C1188.51336,892.983337 1189.57569,892.167607 1190.51914,891.219083 C1193.30422,888.443704 1194.893,884.73308 1194.99489,880.773944 C1195.10056,876.76169 1193.56461,872.908788 1190.67387,869.924733"
                id="Typing-message-bubble"></path>
        </g>
    </g>
</svg>