<?xml version="1.0" encoding="UTF-8"?>
<svg width="260px" height="294px" viewBox="0 0 260 294" version="1.1" xmlns="http://www.w3.org/2000/svg" xmlns:xlink="http://www.w3.org/1999/xlink">
    <title>AFAA6F3C-AD4C-488B-95CA-453AF929C7C8</title>
    <g id="WEB/MOBILE" stroke="none" stroke-width="1" fill="none" fill-rule="evenodd">
        <g id="Forgot-Password" transform="translate(-390.000000, -393.000000)" fill-rule="nonzero">
            <g id="Asset-9" transform="translate(390.000000, 393.000000)">
                <path d="M129.726624,0 L49.5,146.688806 L129.70424,293.4 L132.569476,292.370134 C169.1862,279.471648 200.947314,255.615566 223.540738,224.040733 C246.809949,191.791425 259.290806,153.010456 259.2,113.240534 L259.2,36.8289203 L129.726624,0 Z" id="Path" fill="#D2D2D1"></path>
                <path d="M0,36.8317308 L0,113.249176 C0.0255302807,193.755093 50.980849,265.512624 127.194476,292.370055 L130.05,293.4 L130.05,0 L0,36.8317308 Z" id="Path" fill="#D2D2D1"></path>
                <path d="M225.000255,124.493288 C225.292589,120.5307 225.45,116.523337 225.45,112.515975 L225.45,62.0769375 L129.901635,35.1 L66.6,124.65 L225.000255,124.493288 Z" id="Path" fill="#2B2B2B"></path>
                <path d="M129.6,35.1 L34.2,62.1242299 L34.2,112.65169 C34.2,116.666078 34.3572034,120.680466 34.6491525,124.65 L129.6,124.65 L129.6,35.1 Z" id="Path" fill="#231F20"></path>
                <path d="M129.789997,98.1 L72.45,177.525 L129.789997,256.95 L133.330333,255.355662 C158.280411,244.053866 179.825018,226.373693 195.801576,204.089822 C212.476933,180.921189 222.427154,153.578785 224.55,125.091476 L129.789997,98.1 Z" id="Path" fill="#2B2B2B"></path>
                <path d="M34.2,125.091476 C36.3276059,153.578785 46.3001356,180.921189 63.0128784,204.089822 C79.0252568,226.373693 100.618167,244.053866 125.624184,255.355662 L129.15,256.95 L129.15,98.1 L34.2,125.091476 Z" id="Path" fill="#231F20"></path>
            </g>
        </g>
    </g>
</svg>