<svg width="76px" height="76px" class="mb-8" viewBox="0 0 76 76" version="1.1" xmlns="http://www.w3.org/2000/svg" xmlns:xlink="http://www.w3.org/1999/xlink">
    <title>
        DF7F5987-E65B-41C5-9839-B71F13AA9AF3
    </title>
    <g id="Page-1" stroke="none" stroke-width="1" fill="none" fill-rule="evenodd">
        <g id="Homepage_II" transform="translate(-1087.000000, -7845.000000)">
            <g id="Group-6" transform="translate(1087.000000, 7845.000000)">
                <circle id="Oval-Copy-8" stroke="#626262" stroke-width="2" cx="38" cy="38"
                    r="37">
                </circle>
                <path
                    d="M47.3866958,38.417299 C47.3866958,39.0471185 46.8791178,39.5555271 46.2545514,39.5555271 L29.7441117,39.5555271 C29.1195453,39.5555271 28.6138541,39.0471185 28.6138541,38.417299 C28.6138541,37.7874795 29.1195453,37.279071 29.7441117,37.279071 L46.2545514,37.279071 C46.8791178,37.279071 47.3866958,37.7874795 47.3866958,38.417299 M51.9209343,47.6065935 C51.1189987,48.4147354 50.2170569,49.1033634 49.2434127,49.6610952 C48.1961791,50.2605619 47.5697259,51.3058347 47.5697259,52.4573421 L47.5697259,57.0121514 L41.3580267,52.3549016 C40.7598771,51.7535377 39.9673759,51.4215546 39.1239283,51.4215546 L33.2764023,51.4215546 C26.1023804,51.4215546 20.262402,45.5634742 20.262402,38.3603876 C20.262402,34.8565422 21.6115408,31.5727543 24.0569728,29.1160788 C26.538256,26.6404327 29.8139272,25.2764561 33.2764023,25.2764561 L42.1354325,25.2764561 C45.8281103,25.2764561 49.4434249,26.8206522 52.0530178,29.5144586 C54.5135451,32.0546042 55.8211719,35.3213187 55.7324873,38.7151354 C55.6456895,42.0861874 54.2927769,45.2428733 51.9209343,47.6065935 M53.6738713,27.9247334 C50.643498,24.7946062 46.4356945,23 42.1354325,23 L33.2764023,23 C29.2120038,23 25.3721472,24.5973134 22.4587622,27.503589 C19.5831153,30.3927912 18,34.2494873 18,38.3603876 C18,46.8174221 24.8532477,53.6999077 33.2764023,53.6999077 L39.1239283,53.6999077 C39.3616787,53.6999077 39.5862207,53.792863 39.8786913,54.0698318 L47.1734753,59.5390176 C47.4716067,59.8406481 47.8678572,60 48.2735423,60 C48.4735545,60 48.6773405,59.9620591 48.8698051,59.8804861 C49.4547464,59.6395611 49.8321278,59.0704471 49.8321278,58.4349364 L49.8321278,52.4573421 C49.8321278,52.1348441 50.0302531,51.8294196 50.3642357,51.6397149 C51.5133623,50.9833368 52.5756912,50.1676066 53.5191449,49.2190833 C56.3042202,46.4437039 57.8929962,42.7330804 57.9948892,38.7739438 C58.1005561,34.7616899 56.5646134,30.9087879 53.6738713,27.9247334"
                    id="Typing-message-bubble" fill="#626262"></path>
            </g>
        </g>
    </g>
</svg>