<svg width="20px" height="20px" viewBox="0 0 20 20" version="1.1"
                                xmlns="http://www.w3.org/2000/svg" xmlns:xlink="http://www.w3.org/1999/xlink">
    <title>
        47054EB6-19BC-4DB1-87C5-E7BE33CF1FCE
    </title>
    <g id="Page-1" stroke="none" stroke-width="1" fill="none" fill-rule="evenodd">
        <g id="Homepage_II" transform="translate(-1016.000000, -1562.000000)" fill="#000000"
            fill-rule="nonzero" stroke="#000000" stroke-width="0.6">
            <g id="play-button-2" transform="translate(1017.000000, 1563.000000)">
                <path
                    d="M9.216,0 C4.133988,0 0,4.134384 0,9.216 C0,14.297616 4.133988,18.432 9.216,18.432 C14.298012,18.432 18.432,14.297616 18.432,9.216 C18.432,4.134384 14.298012,0 9.216,0 Z M9.216,17.664012 C4.557744,17.664012 0.767988,13.874256 0.767988,9.216 C0.767988,4.557744 4.557744,0.767988 9.216,0.767988 C13.874256,0.767988 17.664012,4.557744 17.664012,9.216 C17.664012,13.874256 13.874256,17.664012 9.216,17.664012 Z"
                    id="Shape"></path>
                <path
                    d="M12.879756,8.893116 L7.503768,5.437116 C7.386012,5.360256 7.233768,5.356116 7.112268,5.42286 C6.9885,5.49036 6.912,5.619384 6.912,5.76 L6.912,12.672 C6.912,12.812616 6.9885,12.94164 7.112268,13.00914 C7.169256,13.04028 7.233012,13.056012 7.296012,13.056012 C7.368012,13.056012 7.440768,13.035744 7.503768,12.994884 L12.879756,9.538884 C12.989268,9.468396 13.056012,9.3465 13.056012,9.216 C13.056012,9.0855 12.989268,8.96364 12.879756,8.893116 Z M7.679988,11.968488 L7.679988,6.463512 L11.961756,9.216 L7.679988,11.968488 Z"
                    id="Shape"></path>
            </g>
        </g>
    </g>
</svg>