<?xml version="1.0" encoding="UTF-8"?>
<svg width="500px" height="436px" viewBox="0 0 500 436" version="1.1" xmlns="http://www.w3.org/2000/svg" xmlns:xlink="http://www.w3.org/1999/xlink">
    <title>16073887-7156-4D85-B9D1-3A640029F43B</title>
    <defs>
        <polygon id="path-1" points="39.69 0.24786 497.50038 0.24786 497.50038 434.969838 39.69 434.969838"></polygon>
    </defs>
    <g id="WEB/MOBILE" stroke="none" stroke-width="1" fill="none" fill-rule="evenodd">
        <g id="Homepage_Business" transform="translate(-267.000000, -1145.000000)">
            <g id="Group-18" transform="translate(268.000000, 1145.000000)">
                <path d="M55.279584,300.2994 C115.399404,409.51656 237.698064,419.28516 304.971804,408.89772 C366.296904,399.42882 499.081824,348.18498 494.806644,248.99238 C490.531464,149.79978 416.991564,7.85052 263.927484,21.53304 C110.863404,35.21394 3.972564,207.09108 55.279584,300.2994" id="Fill-1" fill="#C4ECFF"></path>
                <g id="Group-5" transform="translate(0.000000, 0.562140)">
                    <mask id="mask-2" fill="white">
                        <use xlink:href="#path-1"></use>
                    </mask>
                    <g id="Clip-4"></g>
                    <path d="M12.371049,107.350312 C-15.8430735,176.372032 -2.2180635,296.99055 126.155192,383.058112 C254.526624,469.125675 400.102457,417.271905 454.378329,355.341532 C509.343107,292.63113 546.281537,129.231247 344.971832,40.2458625 C143.660304,-48.7395225 44.465274,28.831545 12.371049,107.350312 Z" id="Stroke-4" stroke="#231F20" stroke-width="1.215"></path>
                </g>
                <polygon id="Fill-6" fill="#231F20" points="435.878334 78.622002 417.559374 60.303042 399.240414 78.622002 380.919834 60.303042 362.602494 78.622002 344.281914 60.303042 325.961334 78.622002 305.925174 58.585842 309.361194 55.149822 325.961334 71.749962 344.281914 53.431002 362.602494 71.749962 380.919834 53.431002 399.240414 71.749962 417.559374 53.431002 435.878334 71.749962 452.481714 55.149822 455.917734 58.585842"></polygon>
                <polygon id="Fill-8" fill="#231F20" points="435.878334 103.262202 417.559374 84.941622 399.240414 103.262202 380.919834 84.941622 362.602494 103.262202 344.281914 84.941622 325.961334 103.262202 305.925174 83.224422 309.361194 79.788402 325.961334 96.390162 344.281914 78.069582 362.602494 96.390162 380.919834 78.069582 399.240414 96.390162 417.559374 78.069582 435.878334 96.390162 452.481714 79.788402 455.917734 83.224422"></polygon>
                <path d="M367.789248,375.915654 C360.207648,375.915654 354.041928,382.082994 354.041928,389.662974 C354.041928,397.244574 360.207648,403.411914 367.789248,403.411914 C375.370848,403.411914 381.536568,397.244574 381.536568,389.662974 C381.536568,382.082994 375.370848,375.915654 367.789248,375.915654 M367.789248,408.271914 C357.528168,408.271914 349.181928,399.924054 349.181928,389.662974 C349.181928,379.401894 357.528168,371.055654 367.789248,371.055654 C378.050328,371.055654 386.396568,379.401894 386.396568,389.662974 C386.396568,399.924054 378.050328,408.271914 367.789248,408.271914" id="Fill-10" fill="#231F20"></path>
                <path d="M70.152156,351.974808 L88.226496,370.049148 L106.300836,351.974808 L88.226496,333.900468 L70.152156,351.974808 Z M88.226496,376.921188 L63.280116,351.974808 L88.226496,327.028428 L113.174496,351.974808 L88.226496,376.921188 Z" id="Fill-12" fill="#231F20"></path>
                <polygon id="Fill-14" fill="#231F20" points="129.362832 129.544434 96.791112 96.972714 100.227132 93.535074 132.800472 126.108414"></polygon>
                <polygon id="Fill-16" fill="#231F20" points="100.226646 129.544434 96.790626 126.108414 129.362346 93.535074 132.799986 96.972714"></polygon>
            </g>
        </g>
    </g>
</svg>